<mxfile host="Electron" modified="2023-11-06T10:23:51.990Z" agent="Mozilla/5.0 (Windows NT 10.0; Win64; x64) AppleWebKit/537.36 (KHTML, like Gecko) draw.io/22.0.3 Chrome/114.0.5735.289 Electron/25.8.4 Safari/537.36" etag="aXcQS75kRohZF_83Bq2a" version="22.0.3" type="device">
  <diagram name="Page-1" id="FFw4YRxw-kj6YnpQsV5U">
    <mxGraphModel dx="826" dy="478" grid="1" gridSize="10" guides="1" tooltips="1" connect="1" arrows="1" fold="1" page="1" pageScale="1" pageWidth="827" pageHeight="1169" math="0" shadow="0">
      <root>
        <mxCell id="0" />
        <mxCell id="1" parent="0" />
        <mxCell id="TQ0gD_RW83IUzaN2pgth-1" value="" style="whiteSpace=wrap;html=1;aspect=fixed;" vertex="1" parent="1">
          <mxGeometry x="560" y="280" width="40" height="40" as="geometry" />
        </mxCell>
        <mxCell id="TQ0gD_RW83IUzaN2pgth-3" value="" style="triangle;whiteSpace=wrap;html=1;rotation=-90;" vertex="1" parent="1">
          <mxGeometry x="565" y="245" width="30" height="40" as="geometry" />
        </mxCell>
        <mxCell id="TQ0gD_RW83IUzaN2pgth-7" value="" style="rounded=0;whiteSpace=wrap;html=1;rotation=-55;" vertex="1" parent="1">
          <mxGeometry x="549.07" y="260.05" width="35" height="5" as="geometry" />
        </mxCell>
        <mxCell id="TQ0gD_RW83IUzaN2pgth-8" value="" style="rounded=0;whiteSpace=wrap;html=1;rotation=-125;" vertex="1" parent="1">
          <mxGeometry x="576" y="260.05" width="35" height="5" as="geometry" />
        </mxCell>
        <mxCell id="TQ0gD_RW83IUzaN2pgth-9" value="" style="verticalLabelPosition=bottom;shadow=0;dashed=0;align=center;html=1;verticalAlign=top;shape=mxgraph.electrical.opto_electronics.solar_cell;pointerEvents=1;" vertex="1" parent="1">
          <mxGeometry x="555" y="321" width="50" height="40" as="geometry" />
        </mxCell>
        <mxCell id="TQ0gD_RW83IUzaN2pgth-10" value="Solpaneler - 100V 8A" style="text;html=1;strokeColor=none;fillColor=none;align=center;verticalAlign=middle;whiteSpace=wrap;rounded=0;" vertex="1" parent="1">
          <mxGeometry x="600" y="280" width="120" height="30" as="geometry" />
        </mxCell>
        <mxCell id="TQ0gD_RW83IUzaN2pgth-12" value="" style="shape=mxgraph.rack.apc.apc_smart_ups_5000_va_5u;html=1;labelPosition=right;align=left;spacingLeft=15;dashed=0;shadow=0;fillColor=#ffffff;" vertex="1" parent="1">
          <mxGeometry x="240" y="440" width="130" height="50" as="geometry" />
        </mxCell>
        <mxCell id="TQ0gD_RW83IUzaN2pgth-13" value="" style="shape=mxgraph.rack.apc.apc_smart_ups_5000_va_5u;html=1;labelPosition=right;align=left;spacingLeft=15;dashed=0;shadow=0;fillColor=#ffffff;" vertex="1" parent="1">
          <mxGeometry x="240" y="390" width="130" height="50" as="geometry" />
        </mxCell>
        <mxCell id="TQ0gD_RW83IUzaN2pgth-14" value="" style="strokeColor=#666666;html=1;verticalLabelPosition=bottom;labelBackgroundColor=#ffffff;verticalAlign=top;outlineConnect=0;shadow=0;dashed=0;shape=mxgraph.rack.general.server_3;rotation=90;" vertex="1" parent="1">
          <mxGeometry x="280" y="300" width="50" height="130" as="geometry" />
        </mxCell>
        <mxCell id="TQ0gD_RW83IUzaN2pgth-16" value="" style="shape=wire;edgeStyle=orthogonalEdgeStyle;orthogonalLoop=1;jettySize=auto;html=1;sourcePerimeterSpacing=0;targetPerimeterSpacing=0;endArrow=none;curved=0;rounded=0;strokeColor=#000000;dashed=1;fillColor=#ffff00;dashPattern=12 12;fixDash=1;startSize=6;endSize=6;exitX=0;exitY=0.57;exitDx=0;exitDy=0;exitPerimeter=0;" edge="1" parent="1" source="TQ0gD_RW83IUzaN2pgth-9" target="TQ0gD_RW83IUzaN2pgth-14">
          <mxGeometry width="100" relative="1" as="geometry">
            <mxPoint x="470" y="350" as="sourcePoint" />
            <mxPoint x="210" y="360" as="targetPoint" />
            <Array as="points">
              <mxPoint x="470" y="344" />
              <mxPoint x="470" y="280" />
              <mxPoint x="200" y="280" />
              <mxPoint x="200" y="365" />
            </Array>
          </mxGeometry>
        </mxCell>
        <mxCell id="TQ0gD_RW83IUzaN2pgth-17" value="" style="shape=wire;edgeStyle=orthogonalEdgeStyle;orthogonalLoop=1;jettySize=auto;html=1;sourcePerimeterSpacing=0;targetPerimeterSpacing=0;endArrow=none;curved=0;rounded=0;strokeColor=#990000;dashed=1;fillColor=#ffff00;dashPattern=12 12;fixDash=1;startSize=6;endSize=6;entryX=1;entryY=0.57;entryDx=0;entryDy=0;entryPerimeter=0;" edge="1" parent="1" source="TQ0gD_RW83IUzaN2pgth-14" target="TQ0gD_RW83IUzaN2pgth-9">
          <mxGeometry width="100" relative="1" as="geometry">
            <mxPoint x="440" y="390" as="sourcePoint" />
            <mxPoint x="670" y="365" as="targetPoint" />
            <Array as="points">
              <mxPoint x="605" y="365" />
            </Array>
          </mxGeometry>
        </mxCell>
        <mxCell id="TQ0gD_RW83IUzaN2pgth-18" value="&lt;font style=&quot;font-size: 10px;&quot;&gt;Solpanel controller&lt;/font&gt;" style="text;html=1;strokeColor=none;fillColor=none;align=center;verticalAlign=middle;whiteSpace=wrap;rounded=0;" vertex="1" parent="1">
          <mxGeometry x="255" y="350" width="90" height="30" as="geometry" />
        </mxCell>
        <mxCell id="TQ0gD_RW83IUzaN2pgth-19" value="&lt;font style=&quot;font-size: 7px;&quot; color=&quot;#000000&quot;&gt;Batteri #1&lt;/font&gt;" style="text;html=1;strokeColor=none;fillColor=none;align=center;verticalAlign=middle;whiteSpace=wrap;rounded=0;" vertex="1" parent="1">
          <mxGeometry x="308" y="399" width="60" height="30" as="geometry" />
        </mxCell>
        <mxCell id="TQ0gD_RW83IUzaN2pgth-20" value="&lt;font style=&quot;font-size: 7px;&quot; color=&quot;#000000&quot;&gt;Batteri #2&lt;/font&gt;" style="text;html=1;strokeColor=none;fillColor=none;align=center;verticalAlign=middle;whiteSpace=wrap;rounded=0;" vertex="1" parent="1">
          <mxGeometry x="308" y="449" width="60" height="30" as="geometry" />
        </mxCell>
        <mxCell id="TQ0gD_RW83IUzaN2pgth-21" value="Batteribank - 2x200Ah 13.3V" style="text;html=1;strokeColor=none;fillColor=none;align=center;verticalAlign=middle;whiteSpace=wrap;rounded=0;" vertex="1" parent="1">
          <mxGeometry x="369" y="400" width="180" height="30" as="geometry" />
        </mxCell>
        <mxCell id="TQ0gD_RW83IUzaN2pgth-23" value="" style="shape=wire;edgeStyle=orthogonalEdgeStyle;orthogonalLoop=1;jettySize=auto;html=1;sourcePerimeterSpacing=0;targetPerimeterSpacing=0;endArrow=none;curved=0;rounded=0;strokeColor=#990000;dashed=1;fillColor=#ffff00;dashPattern=12 12;fixDash=1;startSize=6;endSize=6;exitX=0;exitY=1;exitDx=0;exitDy=0;exitPerimeter=0;" edge="1" parent="1">
          <mxGeometry width="100" relative="1" as="geometry">
            <mxPoint x="311" y="490" as="sourcePoint" />
            <mxPoint x="311" y="570" as="targetPoint" />
          </mxGeometry>
        </mxCell>
        <mxCell id="TQ0gD_RW83IUzaN2pgth-24" value="" style="shape=wire;edgeStyle=orthogonalEdgeStyle;orthogonalLoop=1;jettySize=auto;html=1;sourcePerimeterSpacing=0;targetPerimeterSpacing=0;endArrow=none;curved=0;rounded=0;strokeColor=#000000;dashed=1;fillColor=#ffff00;dashPattern=12 12;fixDash=1;startSize=6;endSize=6;exitX=0;exitY=1;exitDx=0;exitDy=0;exitPerimeter=0;" edge="1" parent="1">
          <mxGeometry width="100" relative="1" as="geometry">
            <mxPoint x="320" y="490" as="sourcePoint" />
            <mxPoint x="320" y="570" as="targetPoint" />
          </mxGeometry>
        </mxCell>
        <mxCell id="TQ0gD_RW83IUzaN2pgth-28" value="" style="shape=mxgraph.rack.apc.apc_smart_ups_1000-3000_va_2u;html=1;labelPosition=right;align=left;spacingLeft=15;dashed=0;shadow=0;fillColor=#ffffff;" vertex="1" parent="1">
          <mxGeometry x="240" y="570" width="130" height="40" as="geometry" />
        </mxCell>
        <mxCell id="TQ0gD_RW83IUzaN2pgth-30" value="" style="html=1;verticalLabelPosition=bottom;verticalAlign=top;outlineConnect=0;shadow=0;dashed=0;shape=mxgraph.rack.hpe_aruba.switches.r0x35a_aruba_6400_1800w_ps_w_c16;rotation=90;aspect=fixed;" vertex="1" parent="1">
          <mxGeometry x="237" y="580.94" width="37" height="18.04" as="geometry" />
        </mxCell>
        <mxCell id="TQ0gD_RW83IUzaN2pgth-33" value="" style="pointerEvents=1;verticalLabelPosition=bottom;shadow=0;dashed=0;align=center;html=1;verticalAlign=top;shape=mxgraph.electrical.signal_sources.source;aspect=fixed;points=[[0.5,0,0],[1,0.5,0],[0.5,1,0],[0,0.5,0]];elSignalType=ac;" vertex="1" parent="1">
          <mxGeometry x="318" y="582.5" width="15" height="15" as="geometry" />
        </mxCell>
        <mxCell id="TQ0gD_RW83IUzaN2pgth-34" value="" style="pointerEvents=1;verticalLabelPosition=bottom;shadow=0;dashed=0;align=center;html=1;verticalAlign=top;shape=mxgraph.electrical.signal_sources.source;aspect=fixed;points=[[0.5,0,0],[1,0.5,0],[0.5,1,0],[0,0.5,0]];elSignalType=ac;" vertex="1" parent="1">
          <mxGeometry x="338" y="583.04" width="15" height="15" as="geometry" />
        </mxCell>
        <mxCell id="TQ0gD_RW83IUzaN2pgth-35" value="" style="pointerEvents=1;verticalLabelPosition=bottom;shadow=0;dashed=0;align=center;html=1;verticalAlign=top;shape=mxgraph.electrical.signal_sources.source;aspect=fixed;points=[[0.5,0,0],[1,0.5,0],[0.5,1,0],[0,0.5,0]];elSignalType=ac;" vertex="1" parent="1">
          <mxGeometry x="120" y="610" width="60" height="60" as="geometry" />
        </mxCell>
        <mxCell id="TQ0gD_RW83IUzaN2pgth-37" value="" style="shape=wire;edgeStyle=orthogonalEdgeStyle;orthogonalLoop=1;jettySize=auto;html=1;sourcePerimeterSpacing=0;targetPerimeterSpacing=0;endArrow=none;curved=0;rounded=0;strokeColor=#0000FF;dashed=1;fillColor=#ffff00;dashPattern=12 12;fixDash=1;startSize=6;endSize=6;entryX=0.944;entryY=0.814;entryDx=0;entryDy=0;entryPerimeter=0;exitX=0.942;exitY=0.304;exitDx=0;exitDy=0;exitPerimeter=0;" edge="1" parent="1" source="TQ0gD_RW83IUzaN2pgth-35" target="TQ0gD_RW83IUzaN2pgth-30">
          <mxGeometry width="100" relative="1" as="geometry">
            <mxPoint x="210" y="650" as="sourcePoint" />
            <mxPoint x="310" y="650" as="targetPoint" />
          </mxGeometry>
        </mxCell>
        <mxCell id="TQ0gD_RW83IUzaN2pgth-38" value="" style="shape=wire;edgeStyle=orthogonalEdgeStyle;orthogonalLoop=1;jettySize=auto;html=1;sourcePerimeterSpacing=0;targetPerimeterSpacing=0;endArrow=none;curved=0;rounded=0;strokeColor=#663300;dashed=1;fillColor=#ffff00;dashPattern=12 12;fixDash=1;startSize=6;endSize=6;entryX=0.963;entryY=0.572;entryDx=0;entryDy=0;entryPerimeter=0;exitX=1;exitY=0.5;exitDx=0;exitDy=0;exitPerimeter=0;" edge="1" parent="1" source="TQ0gD_RW83IUzaN2pgth-35" target="TQ0gD_RW83IUzaN2pgth-30">
          <mxGeometry width="100" relative="1" as="geometry">
            <mxPoint x="210" y="660" as="sourcePoint" />
            <mxPoint x="310" y="660" as="targetPoint" />
          </mxGeometry>
        </mxCell>
        <mxCell id="TQ0gD_RW83IUzaN2pgth-39" value="&lt;font style=&quot;font-size: 7px;&quot;&gt;Dansk strømnet - 230V 15A&lt;/font&gt;" style="text;html=1;strokeColor=none;fillColor=none;align=center;verticalAlign=middle;whiteSpace=wrap;rounded=0;" vertex="1" parent="1">
          <mxGeometry x="174" y="630" width="100" height="30" as="geometry" />
        </mxCell>
        <mxCell id="TQ0gD_RW83IUzaN2pgth-40" value="&lt;font style=&quot;font-size: 8px;&quot;&gt;Inverter - 230V 3000W. Mulighed for skift til strømnet&lt;/font&gt;" style="text;html=1;strokeColor=none;fillColor=none;align=center;verticalAlign=middle;whiteSpace=wrap;rounded=0;" vertex="1" parent="1">
          <mxGeometry x="367.07" y="567.5" width="197.93" height="30" as="geometry" />
        </mxCell>
        <mxCell id="TQ0gD_RW83IUzaN2pgth-59" value="" style="group" vertex="1" connectable="0" parent="1">
          <mxGeometry x="387.07" y="610" width="162" height="60" as="geometry" />
        </mxCell>
        <mxCell id="TQ0gD_RW83IUzaN2pgth-42" value="" style="strokeColor=#666666;html=1;labelPosition=right;align=left;spacingLeft=15;shadow=0;dashed=0;outlineConnect=0;shape=mxgraph.rack.general.hub;aspect=fixed;" vertex="1" parent="TQ0gD_RW83IUzaN2pgth-59">
          <mxGeometry width="162" height="30" as="geometry" />
        </mxCell>
        <mxCell id="TQ0gD_RW83IUzaN2pgth-45" value="" style="strokeColor=#666666;html=1;labelPosition=right;align=left;spacingLeft=15;shadow=0;dashed=0;outlineConnect=0;shape=mxgraph.rack.general.1u_rack_server;aspect=fixed;" vertex="1" parent="TQ0gD_RW83IUzaN2pgth-59">
          <mxGeometry y="30" width="162" height="15" as="geometry" />
        </mxCell>
        <mxCell id="TQ0gD_RW83IUzaN2pgth-48" value="" style="strokeColor=#666666;html=1;labelPosition=right;align=left;spacingLeft=15;shadow=0;dashed=0;outlineConnect=0;shape=mxgraph.rack.general.1u_rack_server;aspect=fixed;" vertex="1" parent="TQ0gD_RW83IUzaN2pgth-59">
          <mxGeometry y="45" width="162" height="15" as="geometry" />
        </mxCell>
        <mxCell id="TQ0gD_RW83IUzaN2pgth-60" value="" style="shape=wire;edgeStyle=orthogonalEdgeStyle;orthogonalLoop=1;jettySize=auto;html=1;sourcePerimeterSpacing=0;targetPerimeterSpacing=0;endArrow=none;curved=0;rounded=0;strokeColor=#0000FF;dashed=1;fillColor=#ffff00;dashPattern=12 12;fixDash=1;startSize=6;endSize=6;entryX=0.778;entryY=0.645;entryDx=0;entryDy=0;entryPerimeter=0;" edge="1" parent="1" source="TQ0gD_RW83IUzaN2pgth-42" target="TQ0gD_RW83IUzaN2pgth-34">
          <mxGeometry width="100" relative="1" as="geometry">
            <mxPoint x="301.25" y="652" as="sourcePoint" />
            <mxPoint x="374.25" y="630" as="targetPoint" />
          </mxGeometry>
        </mxCell>
        <mxCell id="TQ0gD_RW83IUzaN2pgth-61" value="" style="shape=wire;edgeStyle=orthogonalEdgeStyle;orthogonalLoop=1;jettySize=auto;html=1;sourcePerimeterSpacing=0;targetPerimeterSpacing=0;endArrow=none;curved=0;rounded=0;strokeColor=#663300;dashed=1;fillColor=#ffff00;dashPattern=12 12;fixDash=1;startSize=6;endSize=6;entryX=0.167;entryY=0.72;entryDx=0;entryDy=0;entryPerimeter=0;" edge="1" parent="1" source="TQ0gD_RW83IUzaN2pgth-45" target="TQ0gD_RW83IUzaN2pgth-34">
          <mxGeometry width="100" relative="1" as="geometry">
            <mxPoint x="280" y="669.5" as="sourcePoint" />
            <mxPoint x="354" y="636.5" as="targetPoint" />
          </mxGeometry>
        </mxCell>
        <mxCell id="TQ0gD_RW83IUzaN2pgth-62" value="&lt;font style=&quot;font-size: 9px;&quot;&gt;Forbruger (netværk- og serverrack)&lt;/font&gt;" style="text;html=1;strokeColor=none;fillColor=none;align=center;verticalAlign=middle;whiteSpace=wrap;rounded=0;" vertex="1" parent="1">
          <mxGeometry x="387.07" y="662" width="166" height="30" as="geometry" />
        </mxCell>
      </root>
    </mxGraphModel>
  </diagram>
</mxfile>
